<svg width="201" height="50" viewBox="0 0 201 50" fill="none" xmlns="http://www.w3.org/2000/svg">
<g clip-path="url(#clip0)">
<path d="M176.938 24.5511H166.542V16.2115C166.543 15.1025 166.983 14.0393 167.765 13.2552C168.548 12.471 169.608 12.03 170.715 12.0287C172.306 12.0287 173.833 11.395 174.958 10.2671C176.083 9.13922 176.715 7.60945 176.715 6.01434C176.715 4.41924 176.083 2.88947 174.958 1.76156C173.833 0.633653 172.306 4.75378e-08 170.715 0C166.427 0.0048652 162.316 1.71441 159.283 4.7536C156.251 7.79279 154.546 11.9134 154.541 16.2115V25.2239C153.563 25.7305 152.744 26.4967 152.172 27.4388C151.599 28.3809 151.297 29.4626 151.297 30.5655C151.297 31.6684 151.599 32.75 152.172 33.6921C152.744 34.6342 153.563 35.4005 154.541 35.907V43.9857C154.541 45.5808 155.173 47.1105 156.298 48.2384C157.424 49.3664 158.95 50 160.541 50C162.133 50 163.659 49.3664 164.784 48.2384C165.91 47.1105 166.542 45.5808 166.542 43.9857V36.5805H176.938C178.53 36.5805 180.056 35.9469 181.181 34.819C182.306 33.6911 182.939 32.1613 182.939 30.5662C182.939 28.9711 182.306 27.4413 181.181 26.3134C180.056 25.1855 178.53 24.5519 176.938 24.5519V24.5511Z" fill="#FF0000"/>
<path d="M191.391 30.0132C186.084 30.0132 181.781 26.9814 181.781 23.2417C181.781 19.5019 186.084 16.4702 191.391 16.4702C196.699 16.4702 201.001 19.5019 201.001 23.2417C201.001 26.9814 196.699 30.0132 191.391 30.0132ZM192.844 7.78183C192.255 8.37121 191.824 9.09977 191.59 9.90028C191.356 10.7008 191.326 11.5475 191.505 12.3622C192.318 12.5407 193.162 12.5115 193.961 12.2771C194.759 12.0427 195.486 11.6108 196.075 11.0211C196.663 10.4313 197.094 9.7027 197.328 8.90228C197.562 8.10187 197.591 7.25537 197.413 6.44069C196.6 6.26192 195.756 6.29107 194.957 6.52545C194.159 6.75983 193.432 7.1919 192.844 7.78183H192.844ZM189.938 10.4696C189.35 9.8794 188.623 9.44709 187.825 9.21258C187.026 8.97806 186.181 8.94889 185.369 9.12775C185.191 9.94243 185.22 10.7889 185.454 11.5893C185.688 12.3897 186.118 13.1183 186.707 13.708C187.295 14.2977 188.022 14.7296 188.821 14.964C189.619 15.1984 190.464 15.2277 191.276 15.0493C191.455 14.2347 191.426 13.3883 191.192 12.5879C190.959 11.7875 190.528 11.0591 189.939 10.4696H189.938Z" fill="#008000"/>
<path d="M0 38.6842V15.2002H18.7104V21.0377H7.29689V25.4661H16.6353V30.9681H7.29689V38.6842H0Z" fill="#333333"/>
<path d="M20.082 38.6846V21.8101H26.1738C26.1977 23.7025 25.7489 25.5708 24.8684 27.245H27.4123C27.7021 25.2321 28.2432 23.7448 29.0357 22.783C29.8282 21.8213 30.9384 21.3405 32.3661 21.3406C32.9047 21.3333 33.4427 21.3782 33.9727 21.4746V27.8825C33.1782 27.7313 32.3716 27.6526 31.5629 27.6476C29.9782 27.6476 28.829 28.039 28.1151 28.8218C27.4012 29.6046 27.0441 30.8348 27.0439 32.5122V38.6851L20.082 38.6846Z" fill="#333333"/>
<path d="M34.9141 30.1631C34.9141 27.5242 35.7788 25.3771 37.5082 23.7219C39.2376 22.0667 41.4634 21.2391 44.1857 21.2393C47.0643 21.2393 49.3069 22.0332 50.9135 23.6212C52.5202 25.2091 53.3235 27.3562 53.3235 30.0625C53.319 30.5561 53.2854 31.049 53.223 31.5386H41.6419C41.6639 33.6857 42.523 34.7593 44.2191 34.7593C45.4906 34.7593 46.4614 33.9877 47.1312 32.4444L53.4574 34.1891C51.9176 37.5665 48.8382 39.2552 44.2191 39.2549C41.2958 39.2549 39.0142 38.4554 37.3743 36.8563C35.7344 35.2572 34.9143 33.0261 34.9141 30.1631ZM41.7424 28.1839H46.6291C46.6067 27.3341 46.378 26.6686 45.943 26.1876C45.7254 25.9489 45.4584 25.7606 45.1606 25.636C44.8628 25.5114 44.5415 25.4535 44.2191 25.4663C42.7015 25.4663 41.8759 26.3722 41.7424 28.1839Z" fill="#333333"/>
<path d="M54.6914 33.9541L60.984 33.1155C61.1185 34.5026 62 35.1959 63.6284 35.1954C64.9674 35.1954 65.6368 34.7705 65.6365 33.9206C65.6365 33.2276 65.023 32.7579 63.7958 32.5115L61.7539 32.1425C59.478 31.6955 57.8602 31.0916 56.9006 30.3308C55.9409 29.5701 55.4612 28.3847 55.4613 26.7747C55.4613 25.1421 56.1698 23.8114 57.5868 22.7824C59.0039 21.7533 61.0065 21.2386 63.5948 21.2383C66.0494 21.2383 67.9517 21.6576 69.3017 22.4963C70.6517 23.335 71.483 24.4147 71.7955 25.7352L65.6701 26.9431C65.5319 26.4034 65.2147 25.9268 64.7707 25.5915C64.3268 25.2562 63.7823 25.0821 63.2266 25.0977C62.1107 25.0977 61.5529 25.5003 61.5533 26.3054C61.5533 26.9549 62.2563 27.3799 63.6623 27.5804L66.1057 28.0166C70.278 28.7547 72.3644 30.5775 72.3649 33.4852C72.3649 35.2523 71.6008 36.6554 70.0725 37.6946C68.5442 38.7338 66.3519 39.2538 63.4954 39.2547C60.7726 39.2547 58.6918 38.7514 57.2529 37.745C55.814 36.7385 54.9601 35.4749 54.6914 33.9541Z" fill="#333333"/>
<path d="M74.6406 38.6842V15.2002H81.4018V18.4538C81.4018 21.3617 80.7661 23.766 79.4945 25.6668H82.0384C82.8193 22.7146 84.4821 21.2384 87.0267 21.2384C88.722 21.2384 90.0664 21.7752 91.0599 22.8487C92.0534 23.9222 92.5499 25.4543 92.5494 27.4451V38.6837H85.5854V28.5527C85.5854 27.0764 84.9496 26.3383 83.6781 26.3383C82.2942 26.3383 81.6025 27.3448 81.6028 29.3577V38.6842H74.6406Z" fill="#333333"/>
<path d="M97.2992 38.6844V26.3384H94.3203V21.8093H97.2992V20.1655C97.2992 16.6093 99.062 14.8312 102.588 14.8311H108.579V19.4265H105.131C104.35 19.4265 103.96 19.8179 103.96 20.6007V21.8084H107.776V26.3375H103.96V38.6835L97.2992 38.6844Z" fill="#333333"/>
<path d="M109.484 33.1157V21.8096H116.447V31.8749C116.447 32.6129 116.614 33.1776 116.949 33.569C117.118 33.7645 117.33 33.919 117.567 34.0209C117.805 34.1228 118.063 34.1694 118.321 34.1572C118.622 34.1657 118.921 34.0961 119.187 33.9551C119.454 33.814 119.68 33.6063 119.843 33.3521C120.211 32.8151 120.395 32.0993 120.395 31.2047V21.8116H127.257V38.6861H120.999C121.043 37.6126 121.456 36.3936 122.237 35.0292H119.793C118.945 37.8478 117.215 39.257 114.605 39.257C112.998 39.257 111.743 38.7314 110.839 37.6802C109.936 36.629 109.484 35.1075 109.484 33.1157Z" fill="#333333"/>
<path d="M130.504 38.6842V15.2002H137.299V38.6842H130.504Z" fill="#333333"/>
</g>
<defs>
<clipPath id="clip0">
<rect width="201" height="50" fill="white"/>
</clipPath>
</defs>
</svg>
